/* XPM */
static char * lincutter_xpm[] = {
"64 64 226 2",
"  	c None",
". 	c #D1D1D1",
"+ 	c #D0D0D0",
"@ 	c #CECECE",
"# 	c #C9C9C9",
"$ 	c #C8C8C8",
"% 	c #89A0CE",
"& 	c #5778BA",
"* 	c #5879BA",
"= 	c #5979BA",
"- 	c #597ABB",
"; 	c #5A7ABB",
"> 	c #5B7BBC",
", 	c #5B7CBC",
"' 	c #5B7BBB",
") 	c #5D7BB8",
"! 	c #8EA3CA",
"~ 	c #D4DAE4",
"{ 	c #9CABC7",
"] 	c #CFCFCF",
"^ 	c #4B6EB5",
"/ 	c #013397",
"( 	c #013396",
"_ 	c #013293",
": 	c #013190",
"< 	c #7991C0",
"[ 	c #EDEDED",
"} 	c #CBD0DB",
"| 	c #D0D0D1",
"1 	c #4A6DB5",
"2 	c #013294",
"3 	c #2A51A1",
"4 	c #F3F3F3",
"5 	c #ECECEC",
"6 	c #E3E4E4",
"7 	c #D3D3D6",
"8 	c #486CB4",
"9 	c #1A4C98",
"0 	c #013295",
"a 	c #E3E6EE",
"b 	c #F1F1F1",
"c 	c #EAEAEA",
"d 	c #E2E2E2",
"e 	c #D5D7D8",
"f 	c #CBCBCB",
"g 	c #476BB4",
"h 	c #A9B7D4",
"i 	c #F6F6F6",
"j 	c #EFEFEF",
"k 	c #E8E8E8",
"l 	c #E0E0E0",
"m 	c #D7D7D8",
"n 	c #CDCDCD",
"o 	c #466AB3",
"p 	c #0E4097",
"q 	c #275999",
"r 	c #557BAE",
"s 	c #36659E",
"t 	c #889CC3",
"u 	c #FBFBFB",
"v 	c #F4F4F4",
"w 	c #E6E6E6",
"x 	c #DEDEDE",
"y 	c #D7D7D7",
"z 	c #4569B3",
"A 	c #EEEEEE",
"B 	c #8A9DC4",
"C 	c #FEFEFE",
"D 	c #F9F9F9",
"E 	c #F2F2F2",
"F 	c #EBEBEB",
"G 	c #E4E4E4",
"H 	c #DCDCDC",
"I 	c #D5D5D5",
"J 	c #CCCCCC",
"K 	c #4469B2",
"L 	c #01308F",
"M 	c #8B9EC4",
"N 	c #F7F7F7",
"O 	c #F0F0F0",
"P 	c #E9E9E9",
"Q 	c #DBDBDB",
"R 	c #D3D3D3",
"S 	c #CECECF",
"T 	c #4267B2",
"U 	c #01308E",
"V 	c #8D9FC4",
"W 	c #FCFCFC",
"X 	c #F5F5F5",
"Y 	c #E7E7E7",
"Z 	c #D9D9D9",
"` 	c #CCCCCD",
" .	c #C6C6C6",
"..	c #4166B1",
"+.	c #012F8C",
"@.	c #8FA0C4",
"#.	c #FAFAFA",
"$.	c #E5E5E5",
"%.	c #C7C8CB",
"&.	c #3F65B0",
"*.	c #113888",
"=.	c #14377E",
"-.	c #0B2E75",
";.	c #14367A",
">.	c #204081",
",.	c #2B4988",
"'.	c #35528D",
").	c #496396",
"!.	c #7487AC",
"~.	c #9FAAC0",
"{.	c #D2D2D4",
"].	c #BBBFC7",
"^.	c #CACACA",
"/.	c #3E64B0",
"(.	c #013192",
"_.	c #012D86",
":.	c #012D85",
"<.	c #153E8F",
"[.	c #657DAE",
"}.	c #C4C6C9",
"|.	c #A7B0C1",
"1.	c #3D63AF",
"2.	c #013191",
"3.	c #2F56A1",
"4.	c #AEB5C5",
"5.	c #C7C7C7",
"6.	c #3C62AF",
"7.	c #8195BE",
"8.	c #3A61AE",
"9.	c #6280BA",
"0.	c #3960AE",
"a.	c #5374B6",
"b.	c #385FAD",
"c.	c #5273B7",
"d.	c #365DAD",
"e.	c #4F71B5",
"f.	c #355DAC",
"g.	c #4D70B5",
"h.	c #345CAC",
"i.	c #4C6EB4",
"j.	c #C5C5C5",
"k.	c #325AAB",
"l.	c #496DB3",
"m.	c #3159AB",
"n.	c #486BB3",
"o.	c #C4C4C4",
"p.	c #3059AA",
"q.	c #466AB2",
"r.	c #2F58AA",
"s.	c #4468B1",
"t.	c #C3C3C3",
"u.	c #2D56A9",
"v.	c #4267B0",
"w.	c #2C55A9",
"x.	c #4165AF",
"y.	c #C2C2C2",
"z.	c #2A54A8",
"A.	c #3F65AF",
"B.	c #2953A7",
"C.	c #C1C1C1",
"D.	c #2852A7",
"E.	c #3B61AE",
"F.	c #2751A6",
"G.	c #3A60AD",
"H.	c #C0C0C0",
"I.	c #2651A6",
"J.	c #385EAC",
"K.	c #244FA5",
"L.	c #355DAB",
"M.	c #BFBFBF",
"N.	c #234EA5",
"O.	c #335BAB",
"P.	c #214DA4",
"Q.	c #315AAA",
"R.	c #BEBEBE",
"S.	c #204CA4",
"T.	c #3058A9",
"U.	c #1F4BA3",
"V.	c #2E56A9",
"W.	c #BDBDBD",
"X.	c #1E4AA3",
"Y.	c #2C55A7",
"Z.	c #1D49A2",
"`.	c #2A54A7",
" +	c #1B48A2",
".+	c #2752A6",
"++	c #BCBCBC",
"@+	c #1A47A1",
"#+	c #2650A5",
"$+	c #1845A0",
"%+	c #234EA4",
"&+	c #BBBBBB",
"*+	c #1745A0",
"=+	c #224DA4",
"-+	c #1644A0",
";+	c #4D76A8",
">+	c #204BA2",
",+	c #BABABA",
"'+	c #15439F",
")+	c #13419E",
"!+	c #1C49A1",
"~+	c #B9B9B9",
"{+	c #12419E",
"]+	c #11409E",
"^+	c #B8B8B8",
"/+	c #0F3E9D",
"(+	c #16439F",
"_+	c #0E3D9C",
":+	c #14429E",
"<+	c #B7B7B7",
"[+	c #0D3D9C",
"}+	c #0B3B9B",
"|+	c #103F9C",
"1+	c #B6B6B6",
"2+	c #0A3A9B",
"3+	c #09399A",
"4+	c #0C3B9B",
"5+	c #B5B5B5",
"6+	c #08399A",
"7+	c #063799",
"8+	c #B4B4B4",
"9+	c #053699",
"0+	c #033598",
"a+	c #1F49A0",
"b+	c #023497",
"c+	c #204AA1",
"                  . . . . . . . . . . . . . . . . . . . . . . . . . . . . + @ # $                                               ",
"                + % & & & * * * * = = = = - - - - ; ; ; ; > > > > , , , , ' ) ! ~ {                                             ",
"                ] ^ / / / / / / / / / / / / / / / / / / / / / / / / / / / ( _ : < [ } |                                         ",
"                ] 1 / / / / / / / / / / / / / / / / / / / / / / / / / / / / ( 2 3 4 5 6 7                                       ",
"                @ 8 / / / / / / / / / 9 / / / / / / / 9 / / / / / / / / / / / 0 : a b c d e f                                   ",
"                @ g / / / / / / / / / 9 / / / / / / / 9 / / / / / / / / / / / ( : h i j k l m @                                 ",
"                n o / / / / / / / p 9 q r r r r r r r s 9 9 / / / / / / / / / ( : t u v [ w x y +                               ",
"                n z / / / / / / / / / 9 A A A A A A A r / / / / / / / / / / / ( : B C D E F G H I ]                             ",
"                J K / / / / / / / / / 9 A A A A A A A r / / / / / / / / / / / ( L M C C N O P d Q R S                           ",
"                J T / / / / / / / / / 9 A A A A A A A r / / / / / / / / / / / 0 U V C C W X A Y l Z . `  .                      ",
"                f ../ / / / / / / / / 9 A A A A A A A r / / / / / / / / / / / 0 +.@.C C C #.4 5 $.x y ] %.                      ",
"                f &./ / / / / / / / / 9 A A A A A A A r / / / / / / / / / / / 0 U *.=.-.;.>.,.'.).!.~.{.n ].                    ",
"                ^././ / / / / / / / / 9 A A A A A A A r / / / / / / / / / / / ( (.+._.:._._._._._.:.:.<.[.}.|.                  ",
"                ^.1./ / / / / / / / / 9 A A A A A A A r / / / / / / / / / / / ( ( 2 _ _ _ _ _ _ _ _ (.: 2.3.4.5.                ",
"                # 6./ / / / / / / / / 9 A A A A A A A r / / / / / / / / / / / / / ( ( ( ( ( ( ( ( ( ( ( 0 0 7. .                ",
"                # 8./ / / / / / / / / 9 A A A A A A A r / / / / / / / / / / / / / / / / / / / / / / / / ( ( 9.$                 ",
"                $ 0./ / / / / / / / / 9 A A A A A A A r / / / / / / / / / / / / / / / / / / / / / / / / / ( a.$                 ",
"                $ b./ / / / / / / / / 9 A A A A A A A r / / / / / / / / / / / / / / / / / / / / / / / / / / c.$                 ",
"                5.d./ / / / / / / / / 9 A A A A A A A r / / / / / / / / / / / / / / / / / / / / / / / / / / e.5.                ",
"                5.f./ / / / / / / / / 9 A A A A A A A r / / / / / / / / / / / / / / / / / / / / / / / / / / g.5.                ",
"                 .h./ / / / / / / / / 9 A A A A A A A r / / / / / / / / / / / / / / / / / / / / / / / / / / i. .                ",
"                j.k./ / / / / / / / / 9 A A A A A A A r / / / / / / / / / / / / / / / / / / / / / / / / / / l.j.                ",
"                j.m./ / / / / / / / / 9 A A A A A A A r / / / / / / / / / / / / / / / / / / / / / / / / / / n.j.                ",
"                o.p./ / / / / / / / / 9 A A A A A A A r / / / / / / / / / / / / / / / / / / / / / / / / / / q.o.                ",
"                o.r./ / / / / / / / / 9 A A A A A A A r / / / / / / / / / / / / / / / / / / / / / / / / / / s.o.                ",
"                t.u./ / / / / / / / / 9 A A A A A A A r / / / / / / / / / / / / / / / / / / / / / / / / / / v.t.                ",
"                t.w./ / / / / / / / / 9 A A A A A A A r / / / / / / / / / / / / / / / / / / / / / / / / / / x.t.                ",
"                y.z./ / / / / / / / / 9 A A A A A A A r / / / / / / / / / / / / / / / / / / / / / / / / / / A.y.                ",
"                y.B./ / / / / / / / / 9 A A A A A A A r / / / / / / / / / / / / / / / / / / / / / / / / / / 1.y.                ",
"                C.D./ / / / / / / / / 9 A A A A A A A r / / / / / / / / / / / / / / / / / / / / / / / / / / E.C.                ",
"                C.F./ / / / / / / / / 9 A A A A A A A r / / / / / / / / / / / / / / / / / / / / / / / / / / G.C.                ",
"                H.I./ / / / / / / / / 9 A A A A A A A r / / / / / / / / / / / / / / / / / / / / / / / / / / J.H.                ",
"                H.K./ / / / / / / / / 9 A A A A A A A r / / / / / / / / / / / / / / / / / / / / / / / / / / L.H.                ",
"                M.N./ / / / / / / / / 9 A A A A A A A r / / / / / / / / / / / / / / / / / / / / / / / / / / O.M.                ",
"                M.P./ / / / / / / / / 9 A A A A A A A r / / / / / / / / / / / / / / / / / / / / / / / / / / Q.M.                ",
"                R.S./ / / / / / / / / 9 A A A A A A A r / / / / / / / / / / / / / / / / / / / / / / / / / / T.R.                ",
"                R.U./ / / / / / / / / 9 A A A A A A A r / / / / / / / / / / / / / / / / / / / / / / / / / / V.R.                ",
"                W.X./ / / / / / / / / 9 A A A A A A A r / / / / / / / / / / / / / / / / / / / / / / / / / / Y.W.                ",
"                W.Z./ / / / / / / / / 9 A A A A A A A r / / / / / / / / / / / / / / / / / / / / / / / / / / `.W.                ",
"                W. +/ / / / / / / / / 9 A A A A A A A r / / / / / / / / / / / / / / / / / / / / / / / / / / .+W.                ",
"                ++@+/ / / / / / / / / 9 A A A A A A A r / / / / / / / / / / / / / / / / / / / / / / / / / / #+++                ",
"                ++$+/ / / / / / / / / 9 A A A A A A A r / / / / / / / / / / / / / / / / / / / p / / / / / / %+++                ",
"                &+*+/ / / / / / / / / 9 A A A A A A A r / / / / / / / / / / / / / / / / / / / 9 / / / / / / =+&+                ",
"                &+-+/ / / / / / / / / 9 A A A A A A A ;+9 9 9 9 9 9 9 9 9 9 9 9 9 9 9 9 9 9 9 q 9 9 / / / / >+&+                ",
"                ,+'+/ / / / / / / / / 9 A A A A A A A A A A A A A A A A A A A A A A A A A A A r / / / / / / U.,+                ",
"                ,+)+/ / / / / / / / / 9 A A A A A A A A A A A A A A A A A A A A A A A A A A A r / / / / / / !+,+                ",
"                ~+{+/ / / / / / / / / 9 A A A A A A A A A A A A A A A A A A A A A A A A A A A r / / / / / / @+~+                ",
"                ~+]+/ / / / / / / / / 9 A A A A A A A A A A A A A A A A A A A A A A A A A A A r / / / / / / $+~+                ",
"                ^+/+/ / / / / / / / / 9 A A A A A A A A A A A A A A A A A A A A A A A A A A A r / / / / / / (+^+                ",
"                ^+_+/ / / / / / / / / 9 A A A A A A A A A A A A A A A A A A A A A A A A A A A r / / / / / / :+^+                ",
"                <+[+/ / / / / / / / / 9 A A A A A A A A A A A A A A A A A A A A A A A A A A A r / / / / / / )+<+                ",
"                <+}+/ / / / / / / p 9 q r r r r r r r r r r r r r r r r r r r r r r r r r r r s 9 9 / / / / |+<+                ",
"                1+2+/ / / / / / / / / 9 / / / / / / / / / / / / / / / / / / / / / / / / / / / 9 / / / / / / _+1+                ",
"                1+3+/ / / / / / / / / 9 / / / / / / / / / / / / / / / / / / / / / / / / / / / 9 / / / / / / 4+1+                ",
"                5+6+/ / / / / / / / / / / / / / / / / / / / / / / / / / / / / / / / / / / / / / / / / / / / }+5+                ",
"                5+7+/ / / / / / / / / / / / / / / / / / / / / / / / / / / / / / / / / / / / / / / / / / / / 6+5+                ",
"                8+9+/ / / / / / / / / / / / / / / / / / / / / / / / / / / / / / / / / / / / / / / / / / / / 7+8+                ",
"                8+0+/ / / / / / / / / / / / / / / / / / / / / / / / / / / / / / / / / / / / / / / / / / / / 0+8+                ",
"                8+a+b+b+b+b+b+b+b+b+b+b+b+b+b+b+b+b+b+b+b+b+b+b+b+b+b+b+b+b+b+b+b+b+b+b+b+b+b+b+b+b+b+b+b+b+c+8+                ",
"                  8+8+8+8+8+8+8+8+8+8+8+8+8+8+8+8+8+8+8+8+8+8+8+8+8+8+8+8+8+8+8+8+8+8+8+8+8+8+8+8+8+8+8+8+8+8+                  ",
"                                                                                                                                ",
"                                                                                                                                ",
"                                                                                                                                ",
"                                                                                                                                "};
